<svg xmlns="http://www.w3.org/2000/svg" viewBox="0 0 40 40"><path d="M25.2 25.2l.3.6c.2.2.3.2.5.3.2.1.3.1.6.1s.4 0 .6-.1c.2-.1.3-.2.5-.3.2-.2.2-.3.3-.6.1-.2.1-.4.1-.7v-.9c.2 0 .4 0 .6-.1.2 0 .3-.1.6-.2.3-.2.5-.6.5-1.1 0-.2 0-.5-.2-.7-.1-.2-.3-.4-.5-.5-.2-.1-.3-.1-.6-.2h-.4v-5.3c0-.6-.2-1-.4-1.3-.3-.3-.7-.5-1.2-.5-.2 0-.3 0-.5.1s-.3.2-.4.3l-.3.3c-.1.2-.2.3-.3.5l-4 5.4c-.1.1-.1.2-.2.2 0 0 0 .1-.1.2 0 .1-.1.1-.2.2 0 .1-.1.1-.1.2s-.1.2-.1.2c-.1.1-.1.2-.1.2 0 .1 0 .2-.1.2v.2c0 .2 0 .5.1.7s.2.4.4.6c.3.3.8.5 1.4.5h3.2v1.5zm-1.7-4.3l1.8-2.3v2.3h-1.8zm-7.9-2.6c0 .1-.1.2-.2.3-.1.2-.2.2-.3.4-.1.2-.2.2-.4.4s-.3.2-.5.4c-.1.1-.3.2-.5.4s-.4.3-.7.6c-.2.2-.6.5-.9.8-.3.3-.6.6-.9 1-.1.1-.3.2-.3.3-.1.2-.2.3-.3.5-.1.2-.2.3-.2.5s-.1.3-.1.4c0 .2 0 .4.1.6.1.2.2.3.3.5.2.2.3.3.6.3.2.1.4.1.7.1h5.6c.2 0 .4 0 .6-.1.2-.1.3-.2.5-.3.1-.2.2-.3.3-.4v-.3c0-.2 0-.4-.1-.6-.1-.2-.2-.3-.3-.5-.2-.1-.3-.2-.6-.3-.2 0-.4-.1-.7-.1h-2.8l.2-.2c.2-.2.6-.5.9-.8.3-.3.7-.6.9-.8.3-.2.5-.4.7-.6l.6-.6c.2-.2.3-.5.5-.8.2-.3.3-.6.4-.9.1-.3.2-.7.2-1 0-.2 0-.4-.1-.7 0-.2-.1-.4-.2-.7l-.3-.6c-.1-.2-.2-.3-.4-.6-.2-.2-.3-.3-.5-.4-.2-.2-.3-.2-.6-.3-.3-.2-.7-.2-1-.3-.3-.1-.8-.1-1.2-.1-.3 0-.7 0-1 .1-.3 0-.6.2-.9.2-.2.1-.5.2-.7.3-.2.2-.4.3-.6.5-.2.2-.3.3-.5.6-.2.2-.2.4-.3.6-.1.2-.2.4-.2.6 0 .2-.1.4-.1.7 0 .2 0 .4.1.6.1.2.2.3.3.5.2.2.3.2.4.3.2.1.3.1.6.1s.4 0 .6-.1c.2-.1.3-.2.5-.3.1-.1.2-.2.2-.4.1-.2.2-.3.3-.5.1-.2.1-.3.2-.3l.5-.5c.2-.1.4-.2.6-.2h.3c.1 0 .2.1.3.1.1 0 .2.1.2.2s.2.2.2.2c0 .1.1.2.1.3v.6c0 .1-.1.2-.1.3z"/><path d="M1.3 21.3c.8 0 1.3-.6 1.3-1.3 0-4.8 1.9-8.9 5-12.1 3.1-3.1 7.3-5 12.1-5 3.5 0 6.7 1.1 9.5 2.9 1.8 1.2 3.4 2.8 4.7 4.7l-1.5-.6c-.7-.2-1.5.1-1.7.8-.2.7.1 1.5.8 1.7l4.8 1.9c.3.2.7.2 1 0 .3-.2.6-.4.8-.8L40 8.7c.2-.7-.1-1.5-.8-1.7-.7-.3-1.5.1-1.8.7l-.8 2.1c-1.5-2.5-3.5-4.6-5.9-6.2-3.2-2.2-7-3.3-11-3.3C14.3.3 9.4 2.5 5.8 6.1S0 14.6 0 20c0 .8.6 1.3 1.3 1.3zm37.3-2.6c-.8 0-1.3.6-1.3 1.3 0 4.8-1.9 8.9-5 12.1-3.1 3.1-7.3 5-12.1 5-3.5 0-6.8-1.1-9.5-2.9C8.9 33 7.3 31.4 6 29.5l1.5.6c.7.2 1.5-.1 1.7-.8.2-.7-.1-1.5-.8-1.8l-4.8-1.9c-.3-.2-.7-.2-1 0-.3.2-.6.4-.7.8L.1 31.2c-.2.7.1 1.5.7 1.7s1.5-.1 1.7-.8l.8-2.1c1.5 2.5 3.5 4.6 5.9 6.2 3.2 2.2 7 3.3 11 3.3 5.4 0 10.3-2.2 13.9-5.8S40 25.5 40 20.1c-.1-.9-.7-1.4-1.4-1.4z"/></svg>