<svg xmlns="http://www.w3.org/2000/svg" viewBox="0 0 40 40"><circle cx="9.4" cy="16.3" r="1" fill="#fff"/><circle cx="23.5" cy="16.3" r="1" fill="#fff"/><circle cx="9.4" cy="23.3" r="1" fill="#fff"/><circle cx="16.5" cy="23.3" r="1" fill="#fff"/><circle cx="16.5" cy="30.3" r="1" fill="#fff"/><circle cx="30.5" cy="23.3" r="1" fill="#fff"/><path d="M5.8 40C2.6 40 0 37.4 0 34.2V9c0-3.2 2.6-5.8 5.8-5.8h2.7V1c0-.5.4-1 1-1s1 .4 1 1v2.3H19V1c0-.5.4-1 1-1 .5 0 1 .4 1 1v2.3h8.6V1c0-.5.4-1 1-1s1 .4 1 1v2.3h2.7C37.4 3.2 40 5.8 40 9v25.4c-.1 3.1-2.7 5.5-5.8 5.5L5.8 40zm0-34.8C3.7 5.2 1.9 6.9 1.9 9v25.2c0 2.1 1.7 3.9 3.9 3.9h28.4c2.1 0 3.9-1.7 3.9-3.9V9c0-2.1-1.7-3.9-3.9-3.9h-2.7v2.3c0 .5-.4 1-1 1s-1-.4-1-1V5.2h-8.6v2.3c0 .5-.4 1-1 1-.5 0-1-.4-1-1V5.2h-8.5v2.3c0 .5-.4 1-1 1-.5 0-1-.4-1-1V5.2H5.8z"/></svg>