<svg xmlns="http://www.w3.org/2000/svg" viewBox="0 0 40 40"><path d="M6.1 40C2.8 40 0 37.2 0 33.9V9.2c0-3.3 2.7-6.1 6.1-6.1h2.2V1.3C8.3.6 8.9 0 9.7 0c.7 0 1.3.6 1.3 1.3v1.8h7.6V1.3c0-.8.6-1.3 1.3-1.3s1.3.6 1.3 1.3v1.8h7.7V1.3c0-.8.6-1.3 1.3-1.3.8 0 1.3.6 1.3 1.3v1.8h2.3c3.3 0 6.1 2.8 6.1 6.1v24.9c-.2 3.2-2.8 5.8-6.1 5.8H6.1v.1zm0-34.2c-1.8 0-3.4 1.5-3.4 3.4v24.7c0 1.8 1.5 3.4 3.4 3.4h27.8c1.8 0 3.4-1.5 3.4-3.4V9.2c0-1.8-1.5-3.4-3.4-3.4h-2.3v1.8c0 .8-.6 1.4-1.3 1.4S29 8.4 29 7.7V5.8h-7.7v1.8c0 .7-.6 1.3-1.3 1.3s-1.3-.6-1.3-1.3V5.8H11v1.8c0 .8-.6 1.4-1.3 1.4-.8 0-1.4-.6-1.4-1.3V5.8H6.1zm17.3 25.7c-.8 0-1.3-.6-1.3-1.3 0-.8.6-1.3 1.3-1.3s1.3.6 1.3 1.3c.1.6-.5 1.3-1.3 1.3zm-6.9 0c-.7 0-1.3-.6-1.3-1.3 0-.8.6-1.3 1.3-1.3.8 0 1.3.6 1.3 1.3 0 .6-.5 1.3-1.3 1.3zm-6.8 0c-.8 0-1.3-.6-1.3-1.3 0-.8.6-1.3 1.3-1.3s1.3.6 1.3 1.3c0 .6-.6 1.3-1.3 1.3zm20.5-6.9c-.8 0-1.3-.6-1.3-1.3s.6-1.3 1.3-1.3c.8 0 1.3.6 1.3 1.3s-.5 1.3-1.3 1.3zm-6.8 0c-.8 0-1.3-.6-1.3-1.3s.6-1.3 1.3-1.3 1.3.6 1.3 1.3-.5 1.3-1.3 1.3zm-6.9 0c-.7 0-1.3-.6-1.3-1.3s.6-1.3 1.3-1.3c.8 0 1.3.6 1.3 1.3s-.5 1.3-1.3 1.3zm-6.8 0c-.8 0-1.3-.6-1.3-1.3S9 22 9.7 22s1.3.6 1.3 1.3-.6 1.3-1.3 1.3zm20.5-6.9c-.8 0-1.3-.6-1.3-1.3s.6-1.3 1.3-1.3c.8 0 1.3.6 1.3 1.3 0 .7-.5 1.3-1.3 1.3zm-6.8 0c-.8 0-1.3-.6-1.3-1.3s.6-1.3 1.3-1.3 1.3.6 1.3 1.3c0 .7-.5 1.3-1.3 1.3zm-6.9 0c-.7 0-1.3-.6-1.3-1.3s.6-1.3 1.3-1.3c.8 0 1.3.6 1.3 1.3 0 .7-.5 1.3-1.3 1.3zm-6.8 0c-.8 0-1.3-.6-1.3-1.3S8.9 15 9.7 15c.7 0 1.3.6 1.3 1.3s-.6 1.4-1.3 1.4z" fill="#fff"/></svg>