<svg xmlns="http://www.w3.org/2000/svg" viewBox="0 0 512.016 512.016"><path d="M295.547 387.147L124.88 216.48c-4.16-4.16-10.923-4.16-15.083 0L9.36 316.896c-12.48 12.48-12.48 32.789 0 45.269l140.501 140.48c6.251 6.229 14.443 9.344 22.635 9.344 8.213 0 16.405-3.115 22.635-9.344l100.437-100.416c1.984-2.005 3.115-4.715 3.115-7.552s-1.11-5.546-3.136-7.53zM180.048 487.563c-4.16 4.16-10.923 4.16-15.083 0L24.464 347.083c-4.16-4.181-4.16-10.944 0-15.104l92.885-92.885 155.584 155.584-92.885 92.885z"/><path d="M434.213 77.813c-4.16-4.16-10.923-4.16-15.083 0l-224 224c-4.16 4.16-4.16 10.923 0 15.083a10.716 10.716 0 0 0 7.552 3.115c2.731 0 5.461-1.045 7.531-3.115l224-224c4.16-4.16 4.16-10.923 0-15.083z"/><path d="M508.901 67.147l-64-64c-4.181-4.16-10.944-4.16-15.083 0l-12.501 12.48c-20.821 20.779-20.821 54.635 0 75.456l3.648 3.627c10.389 10.389 24.043 15.595 37.717 15.595s27.328-5.205 37.696-15.595l12.501-12.48c2.005-2.005 3.136-4.715 3.136-7.552s-1.108-5.547-3.114-7.531zm-27.584 12.458c-12.48 12.459-32.768 12.48-45.269-.021l-3.648-3.627c-12.459-12.48-12.459-32.789 0-45.269l4.949-4.928 48.917 48.917-4.949 4.928zM124.88 291.147c-4.16-4.16-10.923-4.16-15.083 0L68.944 332c-4.16 4.16-4.16 10.923 0 15.083a10.716 10.716 0 0 0 7.552 3.115c2.731 0 5.461-1.045 7.531-3.115l40.853-40.853c4.16-4.161 4.16-10.923 0-15.083zm96 96c-4.16-4.16-10.923-4.16-15.083 0L164.944 428c-4.16 4.16-4.16 10.923 0 15.083a10.716 10.716 0 0 0 7.552 3.115c2.731 0 5.461-1.045 7.531-3.115l40.853-40.853c4.16-4.161 4.16-10.923 0-15.083zm-32-32c-4.16-4.16-10.923-4.16-15.083 0L132.944 396c-4.16 4.16-4.16 10.923 0 15.083a10.716 10.716 0 0 0 7.552 3.115c2.731 0 5.461-1.045 7.531-3.115l40.853-40.853c4.16-4.161 4.16-10.923 0-15.083zm-32-32c-4.16-4.16-10.923-4.16-15.083 0L100.944 364c-4.16 4.16-4.16 10.923 0 15.083a10.716 10.716 0 0 0 7.552 3.115c2.731 0 5.461-1.045 7.531-3.115l40.853-40.853c4.16-4.161 4.16-10.923 0-15.083z"/></svg>