<svg xmlns="http://www.w3.org/2000/svg" viewBox="0 0 512 512"><path d="M45 507c-10.7 0-20.7-4.2-28.3-11.7-15.6-15.6-15.6-41 0-56.6l127.2-127.2-2.3-3.4c-18.3-27.6-14.5-64.7 8.9-88.1l21.2-21.2c58.6-58.6 19.2-179.5 18.8-180.7-1-3-.5-6.4 1.4-9 1.9-2.6 4.9-4.2 8.1-4.2 82 0 159.1 31.9 217.1 89.9 58 58 89.9 135.1 89.9 217.1 0 3.2-1.5 6.2-4.1 8.1-1.7 1.2-3.7 1.9-5.9 1.9-1.1 0-2.1-.2-3.1-.5-1.7-.5-41.2-13.3-86.2-13.3-41.4 0-73.2 10.8-94.5 32.1L292 361.4c-13.2 13.2-30.8 20.5-49.5 20.5-13.8 0-27.2-4-38.6-11.6l-3.4-2.3L73.3 495.3C65.7 502.8 55.7 507 45 507zm-14.2-54.1c-3.8 3.8-5.9 8.8-5.9 14.1 0 5.3 2.1 10.4 5.9 14.1 3.8 3.8 8.8 5.9 14.1 5.9s10.4-2.1 14.1-5.9l126.7-126.7-28.3-28.3L30.8 452.9zm177.8-104.1c9.3 8.5 21.2 13.2 33.8 13.2 13.4 0 25.9-5.2 35.4-14.7l14.1-14.1-113.1-113.1-14.1 14.1c-19.5 19.5-19.5 51.2 0 70.7l43.9 43.9zM215 31.9c4.5 19.1 9.8 48.4 8.8 79.7-1.2 37.2-10.7 67.7-28.4 90.6l-2.7 3.5 113.7 113.7 3.5-2.7c24.5-19 57.6-28.6 98.3-28.6 28.6 0 55 4.8 72 8.9l6.6 1.6-.5-6.8a283 283 0 0 0-10.7-59.9l-1.4-4.7-4.7 1.3c-6.2 1.7-12.2 3.1-17.9 4.5-16.8 4.1-32.6 7.9-53.8 16.4-1.2.5-2.4.7-3.7.7-4.1 0-7.8-2.5-9.3-6.3-1-2.5-1-5.2.1-7.7s3-4.4 5.5-5.3c22.4-9 39.3-13.1 55.6-17 5.5-1.3 10.8-2.6 16.2-4.1l5.5-1.5-2.2-5.3c-12.5-30.3-30-58.1-52.1-82.7l-3.5-3.9-56.4 56.4c-1.9 1.9-4.4 2.9-7.1 2.9s-5.2-1-7.1-2.9c-1.9-1.9-2.9-4.4-2.9-7.1s1-5.2 2.9-7.1l56.4-56.4-3.9-3.5c-24.5-22.1-52.4-39.6-82.7-52.1l-5.4-2.2-8.6 34.3c-3.6 14.6-8.3 29-13.9 43-1.5 3.8-5.2 6.3-9.3 6.3-1.3 0-2.5-.2-3.7-.7-2.5-1-4.4-2.9-5.5-5.3-1.1-2.5-1.1-5.2-.1-7.7 5.2-13.1 9.6-26.7 13.1-40.4l9-36-4.6-1.3c-19.5-5.7-39.7-9.3-59.9-10.7l-6.8-.5 1.6 6.6z"/></svg>