<svg xmlns="http://www.w3.org/2000/svg" viewBox="0 0 100 125"><path d="M60.5 86.6c-6.8 0-12.4-5.6-12.4-12.4s5.6-12.4 12.4-12.4 12.4 5.6 12.4 12.4c-.1 6.9-5.6 12.4-12.4 12.4zm0-21.3c-4.9 0-9 4-9 9 0 4.9 4 9 9 9s9-4 9-9c-.1-5-4.1-9-9-9zM12.4 86.6C5.6 86.6 0 81.1 0 74.2c0-6.8 5.6-12.4 12.4-12.4s12.4 5.6 12.4 12.4c0 6.9-5.6 12.4-12.4 12.4zm0-21.3c-4.9 0-9 4-9 9 0 4.9 4 9 9 9s9-4 9-9c-.1-5-4.1-9-9-9z"/><path d="M50.7 80.2H22.1c-.9 0-1.7-.8-1.7-1.7s.8-1.7 1.7-1.7h28.5c.9 0 1.7.8 1.7 1.7.1.9-.7 1.7-1.6 1.7zM4.4 68.8c-.9 0-1.7-.8-1.7-1.7v-14c0-.9.8-1.7 1.7-1.7h35.3c.4 0 .8.1 1.1.4l14.8 12.3c.7.6.8 1.7.2 2.4-.6.7-1.7.8-2.4.2L39 54.8H6.1v12.3c0 1-.8 1.7-1.7 1.7z"/><path d="M58.5 65.5c-.9 0-1.7-.8-1.7-1.7V47.6L39.7 22.3H14.1v30.8c0 .9-.8 1.7-1.7 1.7-.9 0-1.7-.8-1.7-1.7V20.6c0-.9.8-1.7 1.7-1.7h28.2c.6 0 1.1.3 1.4.8l17.9 26.5c.2.3.3.6.3 1v16.7c0 .8-.8 1.6-1.7 1.6z"/><path d="M58.5 48.8H30.1c-.5 0-.9-.2-1.2-.5L19.2 38c-.3-.3-.5-.7-.5-1.2V20.6c0-.9.8-1.7 1.7-1.7s1.7.8 1.7 1.7v15.5l8.7 9.3h27.6c.9 0 1.7.8 1.7 1.7s-.7 1.7-1.6 1.7zm7.2-33.7v49.1c0 .9-.8 1.7-1.7 1.7s-1.7-.8-1.7-1.7V15.1h3.4z"/><path d="M98.3 79.9h-22c-.9 0-1.7-.8-1.7-1.7V50.6H64.1c-.9 0-1.7-.8-1.7-1.7s.8-1.7 1.7-1.7h12.1c.9 0 1.7.8 1.7 1.7v27.7h20.3c.9 0 1.7.8 1.7 1.7.1.9-.7 1.6-1.6 1.6zm-37.8-.7c-2.7 0-5-2.2-5-5s2.2-5 5-5c2.7 0 5 2.2 5 5-.1 2.8-2.3 5-5 5zm0-6.5c-.9 0-1.5.7-1.5 1.5s.7 1.5 1.5 1.5S62 75 62 74.2s-.7-1.5-1.5-1.5zm-48.1 6.5c-2.7 0-5-2.2-5-5s2.2-5 5-5c2.7 0 5 2.2 5 5-.1 2.8-2.3 5-5 5zm0-6.5c-.9 0-1.5.7-1.5 1.5s.7 1.5 1.5 1.5 1.5-.7 1.5-1.5-.7-1.5-1.5-1.5z"/></svg>