<svg xmlns="http://www.w3.org/2000/svg" viewBox="0 0 40 35.8"><path d="M30.6 15.1c0-.1 0-.1 0 0v-.4s0-.1-.1-.1l-.1-.1s-.1 0-.1-.1L16.8 6.8 24.5 2l12.9 7.3-5.4 3.4c-.4.3-.5.8-.3 1.2.3.4.8.5 1.2.3l6.7-4.2c.2-.2.4-.5.4-.8 0-.3-.2-.6-.5-.8L24.9.1c-.3-.1-.7-.1-.9 0L14.6 6 9.8 9 .4 15c-.2.1-.4.4-.4.7 0 .3.2.6.5.8l14.7 8.3c.1.1.3.1.4.1.2 0 .3 0 .5-.1l6.7-4.2c.4-.3.5-.8.3-1.2-.3-.4-.8-.6-1.2-.3L15.5 23 2.7 15.7l7.7-4.8 13.7 7.8V29c0 .3.2.6.5.8.1.1.3.1.4.1.2 0 .3 0 .5-.1l4.7-3c.3-.2.4-.5.4-.8V15.1zm-4.7 12.2v-9.2c0-.3-.2-.6-.5-.8L12.1 9.8l3-1.9L28 15.2l-1.1.7c-.4.3-.5.8-.3 1.2.2.3.5.4.8.4.2 0 .3 0 .5-.1l1-.6v8.7l-3 1.8zm12.7-15.2l-6.7 4.2c-.4.3-.5.8-.3 1.2.2.3.5.4.8.4.2 0 .3 0 .5-.1l6.7-4.2c.4-.3.5-.8.3-1.2-.3-.5-.9-.6-1.3-.3zM21.8 22.7l-6.2 3.9-14.2-8c-.4-.2-1-.1-1.2.3-.2.4-.1 1 .3 1.2l14.7 8.3c.1.1.3.1.4.1.2 0 .3 0 .5-.1l6.7-4.2c.4-.3.5-.8.3-1.2-.3-.4-.9-.6-1.3-.3zm16.8-7l-6.7 4.2c-.4.3-.5.8-.3 1.2.2.3.5.4.8.4.2 0 .3 0 .5-.1l6.7-4.2c.4-.3.5-.8.3-1.2-.3-.4-.9-.6-1.3-.3zM21.8 26.3l-6.2 3.9-14.2-8c-.4-.2-1-.1-1.2.3-.2.4-.1 1 .3 1.2L15.2 32c.1.1.3.1.4.1.2 0 .3 0 .5-.1l6.7-4.2c.4-.3.5-.8.3-1.2-.3-.4-.9-.6-1.3-.3zm16.8-7l-6.7 4.2c-.4.3-.5.8-.3 1.2.2.3.5.4.8.4.2 0 .3 0 .5-.1l6.7-4.2c.4-.3.5-.8.3-1.2-.3-.4-.9-.5-1.3-.3zM21.8 29.9l-6.2 3.9-14.2-8c-.4-.2-1-.1-1.2.3-.2.4-.1 1 .3 1.2l14.7 8.3c.1.1.3.1.4.1.2 0 .3 0 .5-.1l6.7-4.2c.4-.3.5-.8.3-1.2-.3-.4-.9-.5-1.3-.3z"/></svg>