<svg xmlns="http://www.w3.org/2000/svg" viewBox="0 0 80 80"><path d="M32.5 40c0-1.7 1.3-7.5 7.5-7.5s7.5 5.9 7.5 7.5c0 4.1-3.4 7.5-7.5 7.5-4.2 0-7.5-3.4-7.5-7.5zm25.1-5h-6.2c.6 1.4.9 3.4.9 5 0 6.8-5.5 12.3-12.3 12.3S27.7 46.8 27.7 40c0-1.6.3-3.6.9-5h-6.2v18.3c0 2.4 1.9 4.3 4.3 4.3h26.6c2.4 0 4.3-1.9 4.3-4.3V35zM80 40c0 22.1-17.9 40-40 40S0 62.1 0 40 17.9 0 40 0s40 17.9 40 40zM62.5 26.2c0-4.8-3.9-8.7-8.7-8.7H26.2c-4.8 0-8.7 3.9-8.7 8.7v27.6c0 4.8 3.9 8.7 8.7 8.7h27.6c4.8 0 8.7-3.9 8.7-8.7V26.2zm-5 3.8v-7.5h-7.6V30h7.6z" fill="#3f729b"/></svg>