<svg xmlns="http://www.w3.org/2000/svg" xmlns:xlink="http://www.w3.org/1999/xlink" viewBox="0 0 64 64"><defs><linearGradient id="a"><stop offset="0" stop-color="#fec500"/><stop offset="1" stop-color="#fec500" stop-opacity="0"/></linearGradient><linearGradient xlink:href="#a" id="b" x1="35.716" y1="31.929" x2="63.992" y2="31.929" gradientUnits="userSpaceOnUse"/></defs><path d="M50.6 26.2c-.1-1.4 0-5.2 3.6-10.4.3-.4.2-.9-.1-1.3-1.5-1.5-2.4-2.4-3-3.1-.8-.9-1.2-1.3-1.8-1.8-.4-.3-.9-.3-1.3 0-6.3 5.5-13.4 16.9-12.3 30.8.6 8.2 6.6 14.1 14.2 14.1 7.8 0 14.2-6.4 14.2-14.2-.1-7.5-6-13.6-13.5-14.1zm-35.5 0c-.1-1.4 0-5.2 3.6-10.4.3-.4.2-.9-.1-1.3-1.5-1.5-2.4-2.4-3-3.1-.8-.9-1.2-1.3-1.8-1.8-.4-.3-.9-.3-1.3 0C6.1 15.2-.9 26.5.1 40.5c.6 8.2 6.6 14.1 14.2 14.1 7.8 0 14.2-6.4 14.2-14.2 0-7.6-5.9-13.7-13.4-14.2z"/><path d="M12.68 54.486c-.754-.097-2.176-.43-2.873-.671-1.954-.677-3.531-1.64-5.005-3.052-1.334-1.28-2.17-2.436-3.029-4.19-.779-1.59-1.21-2.979-1.51-4.867-.197-1.226-.243-5.37-.08-7.096.502-5.321 1.88-9.942 4.391-14.717 1.907-3.625 4.63-7.231 7.297-9.666 1.283-1.17 1.422-1.15 2.958.441.581.602 1.69 1.744 2.463 2.539 1.83 1.878 1.834 1.888 1.034 3.08-1.382 2.062-2.496 4.558-2.96 6.637-.27 1.206-.43 2.988-.288 3.211.032.05.38.13.772.176 7.2.856 12.602 6.89 12.602 14.073 0 6.102-3.964 11.554-9.79 13.467-1.517.499-2.32.624-4.135.648-.871.011-1.703.005-1.849-.014z" fill="none"/><path d="M12.473 54.451c-3.212-.413-6.305-2.052-8.457-4.481C2.27 47.999.988 45.393.456 42.737.2 41.454.118 40.632.064 38.762-.2 29.634 3.026 20.486 9.103 13.14c.343-.415 1.254-1.387 2.025-2.158 1.482-1.486 1.71-1.643 2.233-1.545.307.058.965.641 1.997 1.77.395.43 1.298 1.382 2.008 2.113.71.73 1.33 1.403 1.377 1.494.199.376.111.626-.635 1.82-2.004 3.206-3.051 6.254-3.051 8.88v.708l.509.05c2.662.262 5.482 1.403 7.566 3.061 4.552 3.621 6.431 9.785 4.667 15.307-1.655 5.18-6.148 8.994-11.51 9.773-.913.133-2.927.153-3.816.038z" fill="none"/><path d="M12.473 54.451c-3.212-.413-6.305-2.052-8.457-4.481C2.27 47.999.988 45.393.456 42.737.2 41.454.118 40.632.064 38.762-.2 29.634 3.026 20.486 9.103 13.14c.343-.415 1.254-1.387 2.025-2.158 1.482-1.486 1.71-1.643 2.233-1.545.307.058.965.641 1.997 1.77.395.43 1.298 1.382 2.008 2.113.71.73 1.33 1.403 1.377 1.494.199.376.111.626-.635 1.82-2.004 3.206-3.051 6.254-3.051 8.88v.708l.509.05c2.662.262 5.482 1.403 7.566 3.061 4.552 3.621 6.431 9.785 4.667 15.307-1.655 5.18-6.148 8.994-11.51 9.773-.913.133-2.927.153-3.816.038zm35.867-.075c-3.335-.38-6.521-2.019-8.694-4.472-2.303-2.602-3.565-5.673-3.91-9.518-.104-1.158-.102-4.45.002-5.73.612-7.47 3.526-14.78 8.294-20.8.971-1.225 2.493-2.875 3.423-3.709 1.194-1.071 1.372-1.04 2.847.486a981 981 0 0 0 2.464 2.537c1.214 1.245 1.46 1.535 1.533 1.809.104.384.064.474-.807 1.856-1.493 2.37-2.501 4.897-2.818 7.067a13.18 13.18 0 0 0-.097 1.44l-.011.847.302.053c.166.029.59.092.943.14 4.067.56 7.905 3.076 10.106 6.626 2.88 4.643 2.824 10.447-.146 14.962a14.867 14.867 0 0 1-4.27 4.25c-2.637 1.705-6.058 2.51-9.161 2.156z" fill="none"/><path d="M48.34 54.376c-3.335-.38-6.521-2.019-8.694-4.472-2.303-2.602-3.565-5.673-3.91-9.518-.104-1.158-.102-4.45.002-5.73.612-7.47 3.526-14.78 8.294-20.8.971-1.225 2.493-2.875 3.423-3.709 1.194-1.071 1.372-1.04 2.847.486a981 981 0 0 0 2.464 2.537c1.214 1.245 1.46 1.535 1.533 1.809.104.384.064.474-.807 1.856-1.493 2.37-2.501 4.897-2.818 7.067a13.18 13.18 0 0 0-.097 1.44l-.011.847.302.053c.166.029.59.092.943.14 4.067.56 7.905 3.076 10.106 6.626 2.88 4.643 2.824 10.447-.146 14.962a14.867 14.867 0 0 1-4.27 4.25c-2.637 1.705-6.058 2.51-9.161 2.156z" fill="none"/><path d="M48.34 54.376c-3.335-.38-6.521-2.019-8.694-4.472-2.303-2.602-3.565-5.673-3.91-9.518-.104-1.158-.102-4.45.002-5.73.612-7.47 3.526-14.78 8.294-20.8.971-1.225 2.493-2.875 3.423-3.709 1.194-1.071 1.372-1.04 2.847.486a981 981 0 0 0 2.464 2.537c1.214 1.245 1.46 1.535 1.533 1.809.104.384.064.474-.807 1.856-1.493 2.37-2.501 4.897-2.818 7.067a13.18 13.18 0 0 0-.097 1.44l-.011.847.302.053c.166.029.59.092.943.14 4.067.56 7.905 3.076 10.106 6.626 2.88 4.643 2.824 10.447-.146 14.962a14.867 14.867 0 0 1-4.27 4.25c-2.637 1.705-6.058 2.51-9.161 2.156z" fill="none"/><path d="M48.34 54.376c-3.335-.38-6.521-2.019-8.694-4.472-2.303-2.602-3.565-5.673-3.91-9.518-.104-1.158-.102-4.45.002-5.73.612-7.47 3.526-14.78 8.294-20.8.971-1.225 2.493-2.875 3.423-3.709 1.194-1.071 1.372-1.04 2.847.486a981 981 0 0 0 2.464 2.537c1.214 1.245 1.46 1.535 1.533 1.809.104.384.064.474-.807 1.856-1.493 2.37-2.501 4.897-2.818 7.067a13.18 13.18 0 0 0-.097 1.44l-.011.847.302.053c.166.029.59.092.943.14 4.067.56 7.905 3.076 10.106 6.626 2.88 4.643 2.824 10.447-.146 14.962a14.867 14.867 0 0 1-4.27 4.25c-2.637 1.705-6.058 2.51-9.161 2.156z" fill="none"/><path d="M12.473 54.451c-3.212-.413-6.305-2.052-8.457-4.481C2.27 47.999.988 45.393.456 42.737.2 41.454.118 40.632.064 38.762-.2 29.634 3.026 20.486 9.103 13.14c.343-.415 1.254-1.387 2.025-2.158 1.482-1.486 1.71-1.643 2.233-1.545.307.058.965.641 1.997 1.77.395.43 1.298 1.382 2.008 2.113.71.73 1.33 1.403 1.377 1.494.199.376.111.626-.635 1.82-2.004 3.206-3.051 6.254-3.051 8.88v.708l.509.05c2.662.262 5.482 1.403 7.566 3.061 4.552 3.621 6.431 9.785 4.667 15.307-1.655 5.18-6.148 8.994-11.51 9.773-.913.133-2.927.153-3.816.038zm35.867-.075c-3.335-.38-6.521-2.019-8.694-4.472-2.303-2.602-3.565-5.673-3.91-9.518-.104-1.158-.102-4.45.002-5.73.612-7.47 3.526-14.78 8.294-20.8.971-1.225 2.493-2.875 3.423-3.709 1.194-1.071 1.372-1.04 2.847.486a981 981 0 0 0 2.464 2.537c1.214 1.245 1.46 1.535 1.533 1.809.104.384.064.474-.807 1.856-1.493 2.37-2.501 4.897-2.818 7.067a13.18 13.18 0 0 0-.097 1.44l-.011.847.302.053c.166.029.59.092.943.14 4.067.56 7.905 3.076 10.106 6.626 2.88 4.643 2.824 10.447-.146 14.962a14.867 14.867 0 0 1-4.27 4.25c-2.637 1.705-6.058 2.51-9.161 2.156z" fill="#fec500"/><path d="M11.76 54.307c-3.09-.59-6.12-2.38-8.037-4.746C1.66 47.012.494 44.05.19 40.574c-.098-1.123-.098-4.383 0-5.631.508-6.502 2.701-12.761 6.448-18.407a34.448 34.448 0 0 1 4.965-5.977c.91-.881 1.197-1.08 1.567-1.079.309 0 .515.125 1.067.644.49.46 4.133 4.285 4.375 4.593.294.375.228.616-.509 1.842-2.025 3.372-2.93 5.908-3.024 8.482l-.044 1.185.18.037c.1.02.385.057.634.082 2.003.2 4.506 1.145 6.453 2.436 1.073.712 2.726 2.33 3.491 3.415 1.974 2.803 2.909 6.378 2.542 9.72-.6 5.45-4.424 10.157-9.666 11.894-1.539.51-2.076.59-4.216.618-1.667.023-2.028.007-2.693-.12z" fill="#fec500"/><path d="M47.783 54.266c-1.349-.21-2.776-.678-4.123-1.352-4.13-2.067-6.951-6.156-7.733-11.208-.294-1.895-.279-6.427.029-8.767.83-6.324 3.304-12.5 7.104-17.735 1.504-2.07 3.886-4.7 4.974-5.487.394-.286.752-.31 1.136-.076.145.088 1.046.962 2.003 1.943 2.388 2.447 2.864 2.96 3.006 3.235.23.443.204.51-.816 2.17-1.522 2.477-2.558 5.233-2.757 7.335-.091.958-.101 1.91-.021 1.91.031.001.49.068 1.019.15 1.66.256 2.795.595 4.17 1.243 3.579 1.688 6.28 4.706 7.502 8.38 1.501 4.518.614 9.381-2.391 13.102-.657.813-2.054 2.131-2.89 2.726-1.721 1.225-3.941 2.103-6.17 2.439-.918.138-3.13.134-4.042-.008z" fill="url(#b)"/><path d="M47.623 54.237c-2.989-.536-5.67-1.952-7.644-4.037-2.358-2.49-3.747-5.622-4.17-9.4-.135-1.198-.111-5.592.037-6.97.827-7.673 4.057-15.14 9.08-20.992.87-1.012 2.484-2.649 2.987-3.027.677-.509 1.013-.457 1.802.28.83.773 4.17 4.284 4.37 4.592.354.547.348.566-.764 2.381-1.182 1.928-2.196 4.381-2.56 6.189-.164.817-.3 2.98-.188 2.982.253.003 2.104.326 2.612.456 2.531.646 4.785 1.931 6.671 3.805 5.092 5.058 5.533 13.036 1.029 18.613-.657.813-2.054 2.131-2.89 2.726-1.718 1.223-3.945 2.106-6.146 2.436-1.065.16-3.244.142-4.226-.034zm-35.698.107c-2.575-.473-5.126-1.752-7.01-3.515C2.212 48.3.525 44.63.183 40.536c-.119-1.427-.051-5.479.113-6.83.558-4.574 1.74-8.567 3.741-12.642 1.986-4.043 4.295-7.282 7.297-10.235 1.155-1.137 1.445-1.35 1.838-1.35.297 0 .465.099 1.022.6.678.61 4.367 4.532 4.507 4.792.18.337.101.556-.675 1.856-1.183 1.98-1.72 3.103-2.257 4.715-.463 1.39-.634 2.291-.688 3.636l-.047 1.145.257.04c.14.022.545.078.898.125s1.015.182 1.471.3c3.525.91 6.564 3.074 8.488 6.043a14.192 14.192 0 0 1 1.845 11.086c-1.298 5.184-5.555 9.27-10.86 10.421-1 .217-4.244.283-5.208.106z" fill="#fec500" stroke-width=".075" stroke="#fec500"/></svg>