<svg xmlns="http://www.w3.org/2000/svg" width="43.179" height="38.27" viewBox="0 0 11.424 10.126"><path d="M1.473 7.93A2.662 2.662 0 0 1 0 5.593V0l5.672 2.968L11.424 0l-.077 5.727A2.482 2.482 0 0 1 9.98 7.87l-4.31 2.256z" fill="#fff"/><path d="M5.665 3.655v6.013l4.21-2.242a1.92 1.92 0 0 0 1.052-1.657l.065-4.912zm4.47 1.977a1.42 1.42 0 0 1-.777 1.225L6.062 8.613V4.288l.882-.463v3.444l.774-.437V3.418l.863-.453v3.39l.477-.28a.452.452 0 0 0 .24-.392V2.589l.884-.465z" fill="#1d70b7"/><path d="M5.666 9.668L1.578 7.491A2.12 2.12 0 0 1 .416 5.634V.857l5.25 2.81zM3.662 7.747l1.477.796V4.216L3.662 3.42v1.719l-.96-.505V2.91l-1.493-.786V5.57a1.505 1.505 0 0 0 .825 1.318l.67.358v-1.72l.958.5z" fill="#3c3c3b"/></svg>