<svg xmlns="http://www.w3.org/2000/svg" width="39.907" height="33.303" viewBox="0 0 10.559 8.811"><g fill="#fff"><path d="M5.232 2.798v6.013l4.21-2.242a1.92 1.92 0 0 0 1.052-1.657L10.559 0zm4.47 1.977A1.42 1.42 0 0 1 8.927 6L5.629 7.756V3.43l.882-.463v3.444l.774-.437V2.561l.863-.453v3.39l.478-.28a.452.452 0 0 0 .238-.392V1.732l.885-.465z"/><path d="M5.25 8.811L1.161 6.634A2.12 2.12 0 0 1 0 4.777V0l5.25 2.81zM3.244 6.89l1.478.796V3.359l-1.478-.796v1.719l-.96-.505V2.053l-1.49-.786v3.447a1.505 1.505 0 0 0 .825 1.318l.669.358V4.67l.958.5z"/></g></svg>