<svg xmlns="http://www.w3.org/2000/svg" width="163.901" height="38.27"><path d="M5.567 29.973A10.06 10.06 0 0 1 0 21.139V.002l21.436 11.216L43.18 0l-.291 21.645a9.379 9.379 0 0 1-5.174 8.1l-16.29 8.525zm158.029-17.249a4.364 4.364 0 0 0-.743-1.2 3.957 3.957 0 0 0-1.128-.887 3.357 3.357 0 0 0-1.573-.393h-9.058a3.249 3.249 0 0 0-1.678.468c-.096.058-.18.133-.27.198a3.168 3.168 0 0 0-2.07-.707 3.42 3.42 0 0 0-2.175.753l-.003-.002a7.268 7.268 0 0 0-3.3-.738 8.361 8.361 0 0 0-3.354.692 8.853 8.853 0 0 0-2.187 1.365 4.365 4.365 0 0 0-.512-.748 3.958 3.958 0 0 0-1.127-.888 3.357 3.357 0 0 0-1.573-.393h-9.058a3.204 3.204 0 0 0-1.318.285v-.1l-.004-.12a4.316 4.316 0 0 0-.56-1.96 3.699 3.699 0 0 0-1.36-1.346 4.772 4.772 0 0 0-1.592-.553 9.207 9.207 0 0 0-1.452-.11 4.951 4.951 0 0 0-1.104.107 3.09 3.09 0 0 0-1.18.522 2.602 2.602 0 0 0-.776.927 3.605 3.605 0 0 0-1.044-.893 4.772 4.772 0 0 0-1.604-.553 9.078 9.078 0 0 0-1.44-.11 4.95 4.95 0 0 0-1.104.107 3.09 3.09 0 0 0-1.181.522 2.603 2.603 0 0 0-.82 1.02 3.646 3.646 0 0 0-1.119-.985 4.772 4.772 0 0 0-1.593-.553 9.118 9.118 0 0 0-1.438-.111 4.95 4.95 0 0 0-1.104.107 3.09 3.09 0 0 0-1.18.523 2.596 2.596 0 0 0-.882 1.167 2.978 2.978 0 0 0-.185 1.04 4.774 4.774 0 0 0 .143 1.138c.027.111.042.213.044.233v1.205c-.05-.055-.088-.118-.14-.17a4.14 4.14 0 0 0-1.258-.858 4.073 4.073 0 0 0-3.235 0 4.15 4.15 0 0 0-1.263.863 3.956 3.956 0 0 0-.424.505 3.87 3.87 0 0 0-.454-.531 4.193 4.193 0 0 0-1.255-.85 3.954 3.954 0 0 0-1.604-.336 4.03 4.03 0 0 0-1.613.33 4.08 4.08 0 0 0-1.276.865 3.985 3.985 0 0 0-.506.622 3.906 3.906 0 0 0-.523-.631 4.193 4.193 0 0 0-1.255-.85 3.955 3.955 0 0 0-1.604-.336 4.03 4.03 0 0 0-1.613.33 4.08 4.08 0 0 0-1.276.865 3.991 3.991 0 0 0-.413.504 2.934 2.934 0 0 0-2.905-1.873 3.42 3.42 0 0 0-2.175.753l-.003-.002a7.268 7.268 0 0 0-3.3-.737 8.361 8.361 0 0 0-3.353.691 8.79 8.79 0 0 0-2.72 1.852 8.631 8.631 0 0 0-.775.907v-3.397a3.877 3.877 0 0 0-.568-2.122 3.762 3.762 0 0 0-1.399-1.31 4.971 4.971 0 0 0-1.597-.534 9.015 9.015 0 0 0-1.404-.11 4.846 4.846 0 0 0-1.163.127 3.13 3.13 0 0 0-1.145.539 2.621 2.621 0 0 0-.844 1.145 2.973 2.973 0 0 0-.185 1.039 5.035 5.035 0 0 0 .13 1.113 2.2 2.2 0 0 1 .042.26v2.598h-1.057v-2.745a3.98 3.98 0 0 0-.514-2.042 3.72 3.72 0 0 0-1.377-1.354 4.9 4.9 0 0 0-1.6-.557 8.744 8.744 0 0 0-1.49-.123 4.747 4.747 0 0 0-1.17.13 3.177 3.177 0 0 0-1.102.513 2.559 2.559 0 0 0-.901 1.244 3.085 3.085 0 0 0-.151.963 4.84 4.84 0 0 0 .143 1.147 1.986 1.986 0 0 1 .042.226v12.962a4.144 4.144 0 0 0 .297 1.55 4.088 4.088 0 0 0 .833 1.295 3.992 3.992 0 0 0 1.31.913 4.07 4.07 0 0 0 1.627.332 4.01 4.01 0 0 0 1.63-.337 4.054 4.054 0 0 0 1.27-.878 3.977 3.977 0 0 0 .862-1.335 4.182 4.182 0 0 0 .29-1.54v-2.226h1.058v2.226a4.13 4.13 0 0 0 .297 1.55 4.031 4.031 0 0 0 .854 1.312 4.13 4.13 0 0 0 1.267.88 4.034 4.034 0 0 0 4.573-.897 4.19 4.19 0 0 0 .83-1.273 4.012 4.012 0 0 0 .255-.985 8.521 8.521 0 0 0 .836.985 8.835 8.835 0 0 0 2.715 1.839 8.32 8.32 0 0 0 3.355.691 7.245 7.245 0 0 0 3.28-.728 3.453 3.453 0 0 0 2.17.728 3.08 3.08 0 0 0 2.343-.945 3.039 3.039 0 0 0 .591-.974 3.872 3.872 0 0 0 .855.898l.417.277.09.047a3.88 3.88 0 0 0 .878.333 2.349 2.349 0 0 0 .357.078 4.462 4.462 0 0 0 .794.06l13.304.013a4.112 4.112 0 0 0 1.544-.296 4.043 4.043 0 0 0 1.287-.828 3.97 3.97 0 0 0 .711-.952 3.873 3.873 0 0 0 1.095 1.268l.472.313.805.362h.172a2.377 2.377 0 0 0 .294.06 4.459 4.459 0 0 0 .794.06h14.417l.027-.001a3.965 3.965 0 0 0 1.549-.354 4.071 4.071 0 0 0 1.23-.85 3.933 3.933 0 0 0 .854-1.294 4.122 4.122 0 0 0 .3-1.576v-5.093a3.207 3.207 0 0 0 1.318.283h.41l.019 5.302a3.382 3.382 0 0 0 .403 1.589 3.964 3.964 0 0 0 .913 1.145 4.45 4.45 0 0 0 1.244.758 4.216 4.216 0 0 0 1.586.305 3.776 3.776 0 0 0 1.563-.34 4.27 4.27 0 0 0 1.146-.763 4.034 4.034 0 0 0 .86-1.14 3.412 3.412 0 0 0 .379-1.543l.028-5.314h.507c.059 0 .116-.018.175-.021-.01.167-.025.333-.025.502a8.446 8.446 0 0 0 .687 3.37 8.71 8.71 0 0 0 1.846 2.73 8.837 8.837 0 0 0 2.715 1.838 8.32 8.32 0 0 0 3.355.692 7.246 7.246 0 0 0 3.279-.728 3.453 3.453 0 0 0 2.171.728 3.007 3.007 0 0 0 3.152-3.184v-6.053a3.22 3.22 0 0 0 .893.127h.41l.02 5.302a3.382 3.382 0 0 0 .403 1.59 3.964 3.964 0 0 0 .914 1.144 4.45 4.45 0 0 0 1.243.759 4.216 4.216 0 0 0 1.586.304 3.777 3.777 0 0 0 1.563-.34 4.271 4.271 0 0 0 1.146-.763 4.035 4.035 0 0 0 .86-1.14 3.41 3.41 0 0 0 .379-1.543l.028-5.314h.507a3.384 3.384 0 0 0 1.57-.392 3.93 3.93 0 0 0 1.154-.925 4.25 4.25 0 0 0 1.024-2.786 3.985 3.985 0 0 0-.305-1.54z" fill="#fff"/><path d="M62.733 23.384a2.072 2.072 0 0 1-.16.807 2.193 2.193 0 0 1-.437.672 2.08 2.08 0 0 1-2.32.453 2.137 2.137 0 0 1-.663-.46 2.03 2.03 0 0 1-.432-.665 2.14 2.14 0 0 1-.152-.807v-4.21h-5.027v4.21a2.192 2.192 0 0 1-.152.813 2 2 0 0 1-.431.672 2.065 2.065 0 0 1-.657.453 2.027 2.027 0 0 1-.829.167 2.074 2.074 0 0 1-.835-.167 1.99 1.99 0 0 1-.663-.46 2.096 2.096 0 0 1-.431-.672 2.152 2.152 0 0 1-.153-.806V10.422a3.5 3.5 0 0 0-.1-.7 2.825 2.825 0 0 1-.086-.673 1.095 1.095 0 0 1 .053-.345.559.559 0 0 1 .206-.274 1.2 1.2 0 0 1 .411-.18 2.788 2.788 0 0 1 .67-.066 6.898 6.898 0 0 1 1.154.092 2.939 2.939 0 0 1 .955.327 1.743 1.743 0 0 1 .65.64 2.021 2.021 0 0 1 .238 1.032v4.73h5.027v-4.583a3.831 3.831 0 0 0-.093-.7 3.071 3.071 0 0 1-.08-.673.975.975 0 0 1 .06-.345.61.61 0 0 1 .206-.274 1.123 1.123 0 0 1 .41-.18 2.866 2.866 0 0 1 .677-.066 6.885 6.885 0 0 1 1.094.086 2.995 2.995 0 0 1 .955.313 1.82 1.82 0 0 1 .676.633 1.944 1.944 0 0 1 .259 1.058zm14.31-11.191a1.44 1.44 0 0 0-1.015.387 2.577 2.577 0 0 0-.656 1.132l-.03.073a5.025 5.025 0 0 0-1.37-1.053 5.27 5.27 0 0 0-2.406-.525 6.338 6.338 0 0 0-2.56.525 6.745 6.745 0 0 0-3.535 3.544 6.619 6.619 0 0 0 0 5.162 6.698 6.698 0 0 0 1.426 2.113 6.8 6.8 0 0 0 2.109 1.425 6.32 6.32 0 0 0 2.56.526 5.256 5.256 0 0 0 2.406-.526 5.044 5.044 0 0 0 1.34-1.015l.06.156a1.717 1.717 0 0 0 1.644 1.385 1.162 1.162 0 0 0 .89-.313 1.21 1.21 0 0 0 .277-.886V13.339a1.01 1.01 0 0 0-1.14-1.146zm-3.223 7.654a2.568 2.568 0 0 1-.517.826 2.504 2.504 0 0 1-.776.56 2.346 2.346 0 0 1-1.923 0 2.496 2.496 0 0 1-.776-.56 2.56 2.56 0 0 1-.517-.826 2.746 2.746 0 0 1 0-1.985 2.478 2.478 0 0 1 .517-.819 2.56 2.56 0 0 1 .776-.554 2.346 2.346 0 0 1 1.923 0 2.569 2.569 0 0 1 .776.554 2.485 2.485 0 0 1 .517.82 2.746 2.746 0 0 1 0 1.984zm22.731 5.443l-13.209-.014h-.092a2.029 2.029 0 0 1-.411-.04.426.426 0 0 1-.12-.027 1.956 1.956 0 0 1-.477-.173l-.12-.08-.146-.093a1.908 1.908 0 0 1-.597-.712 2.136 2.136 0 0 1-.212-.953v-8.754a2.075 2.075 0 0 1 .597-1.464 2.108 2.108 0 0 1 .663-.447 2.04 2.04 0 0 1 .822-.167 1.962 1.962 0 0 1 .802.167 2.21 2.21 0 0 1 .664.447 2.088 2.088 0 0 1 .45.659 1.994 1.994 0 0 1 .166.806v2.091h-.013v4.57h2.626v-6.662a2.064 2.064 0 0 1 .16-.805 2.042 2.042 0 0 1 .437-.66 2.105 2.105 0 0 1 .663-.446 2.041 2.041 0 0 1 .822-.167 1.963 1.963 0 0 1 .802.167 2.213 2.213 0 0 1 .663.447 2.08 2.08 0 0 1 .452.659 1.992 1.992 0 0 1 .165.806v6.674h2.467v-6.66a2.078 2.078 0 0 1 .597-1.467 2.128 2.128 0 0 1 .656-.446 2.086 2.086 0 0 1 1.632 0 2.097 2.097 0 0 1 1.1 1.107 1.992 1.992 0 0 1 .166.805v8.833a2.056 2.056 0 0 1-.179.792 1.996 1.996 0 0 1-.444.633 2.044 2.044 0 0 1-.657.42 2.108 2.108 0 0 1-.802.153z" fill="#3c3c3b"/><path d="M115.947 9.856a2.833 2.833 0 0 1-.086-.673.99.99 0 0 1 .06-.347.606.606 0 0 1 .212-.273 1.111 1.111 0 0 1 .418-.173 3.149 3.149 0 0 1 .677-.06 6.981 6.981 0 0 1 1.133.086 2.769 2.769 0 0 1 .922.313 1.747 1.747 0 0 1 .643.64 2.353 2.353 0 0 1 .285 1.066v12.762a2.127 2.127 0 0 1-.152.813 1.96 1.96 0 0 1-.424.646 2.13 2.13 0 0 1-.637.44 2.027 2.027 0 0 1-.789.18h-14.483a2.027 2.027 0 0 1-.41-.04.426.426 0 0 1-.12-.027l-.133-.026a.207.207 0 0 0-.08-.026l-.265-.12-.12-.08-.146-.094a1.908 1.908 0 0 1-.597-.712 2.136 2.136 0 0 1-.212-.953V10.555a3.575 3.575 0 0 0-.1-.7 2.833 2.833 0 0 1-.086-.672.98.98 0 0 1 .06-.347.603.603 0 0 1 .212-.273 1.112 1.112 0 0 1 .418-.173 3.152 3.152 0 0 1 .676-.06 6.89 6.89 0 0 1 1.12.086 2.769 2.769 0 0 1 .922.313 1.747 1.747 0 0 1 .643.64 2.353 2.353 0 0 1 .286 1.066v10.67h3.103v-10.55a3.538 3.538 0 0 0-.1-.7 2.833 2.833 0 0 1-.086-.672.98.98 0 0 1 .06-.347.603.603 0 0 1 .212-.273 1.112 1.112 0 0 1 .418-.173 3.152 3.152 0 0 1 .676-.06 7.019 7.019 0 0 1 1.127.086 2.77 2.77 0 0 1 .928.313 1.7 1.7 0 0 1 .637.64 2.413 2.413 0 0 1 .279 1.066v10.67h3.012v-10.55a4.418 4.418 0 0 0-.113-.7zm18.389 4.416a2.268 2.268 0 0 1-.544 1.492 1.936 1.936 0 0 1-.57.46 1.394 1.394 0 0 1-.65.166h-2.48l-.04 7.287a1.446 1.446 0 0 1-.166.66 2.06 2.06 0 0 1-.438.579 2.306 2.306 0 0 1-.623.413 1.76 1.76 0 0 1-.736.16 2.209 2.209 0 0 1-.842-.16 2.444 2.444 0 0 1-.684-.413 2 2 0 0 1-.463-.58 1.396 1.396 0 0 1-.173-.66l-.027-7.286h-2.387a1.255 1.255 0 0 1-.65-.18 2.03 2.03 0 0 1-.544-.473 2.355 2.355 0 0 1-.378-.66 2.097 2.097 0 0 1-.139-.752 2.175 2.175 0 0 1 .14-.753 2.409 2.409 0 0 1 .37-.672 1.992 1.992 0 0 1 .544-.48 1.26 1.26 0 0 1 .657-.186h9.058a1.393 1.393 0 0 1 .65.166 1.952 1.952 0 0 1 .564.446 2.34 2.34 0 0 1 .397.646 2.01 2.01 0 0 1 .154.78zm12.465-2.079a1.44 1.44 0 0 0-1.014.387 2.577 2.577 0 0 0-.657 1.132l-.029.073a5.025 5.025 0 0 0-1.37-1.053 5.27 5.27 0 0 0-2.406-.525 6.338 6.338 0 0 0-2.56.525 6.746 6.746 0 0 0-3.535 3.544 6.62 6.62 0 0 0 0 5.162 6.7 6.7 0 0 0 1.426 2.113 6.8 6.8 0 0 0 2.109 1.425 6.32 6.32 0 0 0 2.56.526 5.256 5.256 0 0 0 2.406-.526 5.044 5.044 0 0 0 1.34-1.015l.06.156a1.717 1.717 0 0 0 1.645 1.385 1.162 1.162 0 0 0 .888-.313 1.21 1.21 0 0 0 .279-.886V13.339a1.01 1.01 0 0 0-1.142-1.146zm-3.222 7.654a2.568 2.568 0 0 1-.517.826 2.504 2.504 0 0 1-.776.56 2.346 2.346 0 0 1-1.924 0 2.496 2.496 0 0 1-.775-.56 2.56 2.56 0 0 1-.517-.826 2.745 2.745 0 0 1 0-1.985 2.478 2.478 0 0 1 .517-.819 2.56 2.56 0 0 1 .776-.554 2.346 2.346 0 0 1 1.923 0 2.569 2.569 0 0 1 .776.554 2.485 2.485 0 0 1 .517.82 2.746 2.746 0 0 1 0 1.984zm18.063-5.575a2.267 2.267 0 0 1-.544 1.492 1.936 1.936 0 0 1-.57.46 1.394 1.394 0 0 1-.65.166h-2.48l-.04 7.287a1.448 1.448 0 0 1-.166.66 2.063 2.063 0 0 1-.437.579 2.306 2.306 0 0 1-.624.413 1.76 1.76 0 0 1-.736.16 2.208 2.208 0 0 1-.842-.16 2.442 2.442 0 0 1-.683-.413 2 2 0 0 1-.464-.58 1.397 1.397 0 0 1-.172-.66l-.027-7.286h-2.387a1.254 1.254 0 0 1-.65-.18 2.03 2.03 0 0 1-.543-.473 2.36 2.36 0 0 1-.378-.66 2.097 2.097 0 0 1-.14-.752 2.175 2.175 0 0 1 .14-.753 2.411 2.411 0 0 1 .371-.672 1.993 1.993 0 0 1 .544-.48 1.26 1.26 0 0 1 .656-.186h9.058a1.393 1.393 0 0 1 .65.166 1.954 1.954 0 0 1 .564.446 2.337 2.337 0 0 1 .398.647 2.009 2.009 0 0 1 .152.779zM21.41 13.815l.003 22.727 15.91-8.476a7.26 7.26 0 0 0 3.974-6.263l.245-18.564zm16.898 7.47a5.365 5.365 0 0 1-2.937 4.63L22.91 32.55V16.207l3.332-1.75v13.017l2.927-1.652V12.92l3.261-1.714V24.02l1.806-1.062a1.707 1.707 0 0 0 .902-1.48V9.785l3.344-1.757z" fill="#1d70b7"/><path d="M21.413 36.541l-15.449-8.23a8.01 8.01 0 0 1-4.39-7.017V3.24l19.84 10.622zm-7.574-7.262l5.585 3.008v-16.35l-5.585-3.01v6.495l-3.627-1.907V11L4.569 8.027v13.028a5.688 5.688 0 0 0 3.118 4.983l2.53 1.35v-6.5l3.622 1.89z" fill="#3c3c3b"/></svg>