<svg xmlns="http://www.w3.org/2000/svg" viewBox="0 0 40 40"><path d="M9.2 38.9c-2.4 0-4.3-1.9-4.3-4.3V19.3c0-2.4 1.9-4.3 4.3-4.3h2.9V8.7C12.1 4.5 15.7 1 20 1s7.9 3.5 7.9 7.7v6.4h2.9c2.4 0 4.3 1.9 4.3 4.3v15.3c0 2.4-1.9 4.3-4.3 4.3l-21.6-.1zm0-21.2c-.9 0-1.7.8-1.7 1.7v15.3c0 .9.8 1.7 1.7 1.7h21.6c.9 0 1.7-.8 1.7-1.7V19.3c0-.9-.8-1.7-1.7-1.7l-21.6.1zM20 3.5c-2.9 0-5.3 2.3-5.3 5.1V15h10.7V8.7c-.1-2.8-2.5-5.2-5.4-5.2zm0 28.4c-.7 0-1.3-.6-1.3-1.3v-3.4l-.1-.1c-.7-.5-1.2-1.3-1.2-2.1 0-1.4 1.2-2.5 2.5-2.5 1.4 0 2.5 1.2 2.5 2.5 0 .9-.5 1.7-1.2 2.1l-.1.1v3.4c.2.7-.4 1.3-1.1 1.3z" fill="#fff"/></svg>