<svg version="1.1" id="Capa_1" xmlns="http://www.w3.org/2000/svg" x="0" y="0" viewBox="0 0 273.6 273.6" xml:space="preserve"><style>.st0{fill:#000002}</style><path class="st0" d="M66.4 271.6c-8.5 0-15.5-7-15.5-15.5v-174h-9.3c-5.8 0-10.5-4.7-10.5-10.5v-23c0-5.8 4.7-10.5 10.5-10.5h45.8V18.5C87.4 9.4 94.8 2 103.9 2h65.8c9.1 0 16.5 7.4 16.5 16.5v19.6H232c5.8 0 10.5 4.7 10.5 10.5v22.9c0 5.8-4.7 10.5-10.5 10.5h-9.3v174c0 8.5-7 15.5-15.5 15.5H66.4zm-4.5-15.5c0 2.4 2.1 4.5 4.5 4.5h140.9c2.4 0 4.5-2.1 4.5-4.5v-174H61.9v174zm-19.8-185h189.4v-22H42.1v22zM103.9 13c-3 0-5.5 2.5-5.5 5.5v19.6h76.8V18.5c0-3-2.5-5.5-5.5-5.5h-65.8z"/><path class="st0" d="M92.9 235.4c-3 0-5.5-2.5-5.5-5.5V115.5c0-3 2.5-5.5 5.5-5.5s5.5 2.5 5.5 5.5v114.4c0 3-2.5 5.5-5.5 5.5zm43.9 0c-3 0-5.5-2.5-5.5-5.5V115.5c0-3 2.5-5.5 5.5-5.5s5.5 2.5 5.5 5.5v114.4c0 3-2.5 5.5-5.5 5.5zm43.9 0c-3 0-5.5-2.5-5.5-5.5V115.5c0-3 2.5-5.5 5.5-5.5s5.5 2.5 5.5 5.5v114.4c0 3-2.5 5.5-5.5 5.5z"/></svg>