<svg xmlns="http://www.w3.org/2000/svg" viewBox="0 0 489.4 489.4"><path d="M452.154 307.02l-57.442-198.941-202.664 58.524 57.432 198.941 202.674-58.524zm-71.399-173.659l46.118 159.712-163.436 47.19-46.108-159.713 163.426-47.189z"/><path d="M478.215 342.087c-1.565-5.414-7.208-8.519-12.641-6.978L258.637 394.86c-9.463-13.895-24.561-23.63-42.006-25.949L121.934 40.966c-8.663-30.017-40.106-47.4-70.184-38.741-30.027 8.679-47.404 40.162-38.74 70.189 1.575 5.418 7.228 8.518 12.64 6.979 5.414-1.566 8.544-7.223 6.979-12.641-5.542-19.211 5.573-39.359 24.784-44.906 19.25-5.543 39.358 5.577 44.901 24.783l93.311 323.14c-27.193 5.935-47.559 30.14-47.559 59.113 0 33.424 27.095 60.519 60.519 60.519s60.519-27.095 60.519-60.519c0-5.261-.674-10.364-1.935-15.23l204.067-58.923c5.414-1.567 8.544-7.225 6.979-12.642zm-269.63 127.494c-22.478 0-40.7-18.222-40.7-40.7s18.222-40.7 40.7-40.7 40.7 18.222 40.7 40.7-18.222 40.7-40.7 40.7z"/></svg>