<svg xmlns="http://www.w3.org/2000/svg" viewBox="0 0 80 80"><path d="M40 0C17.9 0 0 17.9 0 40s17.9 40 40 40 40-17.9 40-40S62.1 0 40 0zm22.9 57.5l-7 .1s-1.5.3-3.5-1.1c-2.6-1.8-5.1-6.5-7-5.9-2 .6-1.9 4.8-1.9 4.8s0 .9-.4 1.4c-.5.5-1.4.6-1.4.6h-3.1s-6.9.4-13-5.9c-6.7-6.9-12.5-20.7-12.5-20.7s-.3-.9 0-1.3c.4-.5 1.5-.5 1.5-.5h7.5s.7.1 1.2.5c.4.3.7.9.7.9s1.2 3.1 2.8 5.8c3.1 5.4 4.6 6.6 5.7 6 1.6-.8 1.1-7.7 1.1-7.7s0-2.5-.8-3.6c-.6-.9-1.8-1.1-2.3-1.2-.4-.1.3-1 1.2-1.5 1.4-.7 3.7-.7 6.6-.7 2.2 0 2.8.2 3.7.4 2.6.6 1.7 3 1.7 8.8 0 1.9-.3 4.5 1 5.3.6.4 2 .1 5.5-5.9 1.7-2.8 2.9-6.2 2.9-6.2s.3-.6.7-.8c.4-.3 1-.2 1-.2h7.9s2.4-.3 2.8.8c.4 1.1-.9 3.7-4.1 8.1-5.3 7.1-5.9 6.4-1.5 10.5 4.2 3.9 5.1 5.8 5.2 6 1.5 3-2.2 3.2-2.2 3.2z" fill="#4d76a1"/></svg>