<svg xmlns="http://www.w3.org/2000/svg" viewBox="0 0 40 40"><path d="M33.9 37.4h-2.3v-4.3c0-4.3-2.3-8.2-6.6-11-.5-.3-.8-1.1-.8-2 0-.9.3-1.7.8-2 4.3-2.8 6.6-6.8 6.6-11V2.8h2.3c.8 0 1.3-.6 1.3-1.3S34.6 0 33.9 0H6.1c-.7 0-1.3.6-1.3 1.3s.6 1.3 1.3 1.3h2.3v4.3c0 4.3 2.3 8.2 6.6 11 .5.3.8 1.1.8 2 0 .9-.3 1.7-.8 2-4.3 2.8-6.6 6.8-6.6 11v4.3H6.1c-.8 0-1.3.6-1.3 1.3 0 .8.6 1.3 1.3 1.3h27.7c.8 0 1.3-.6 1.3-1.3.1-.5-.5-1.1-1.2-1.1zm-22.6-4.3c0-4.5 3.3-7.4 5.4-8.8 1.3-.8 2.1-2.5 2.1-4.3 0-1.8-.8-3.4-2.1-4.3-2-1.3-5.4-4.3-5.4-8.8V2.8h17.5V7c0 4.5-3.3 7.4-5.4 8.8-1.3.8-2.1 2.5-2.1 4.3 0 1.8.8 3.4 2.1 4.3 2 1.3 5.4 4.3 5.4 8.8v4.3H11.3v-4.4z"/></svg>